<svg width="246" height="241" viewBox="0 0 246 241" fill="none" xmlns="http://www.w3.org/2000/svg">
<g clip-path="url(#clip0_30_290)">
<mask id="mask0_30_290" style="mask-type:luminance" maskUnits="userSpaceOnUse" x="122" y="19" width="80" height="131">
<path d="M202 19.5353H122.683V150H202V19.5353Z" fill="white"/>
</mask>
<g mask="url(#mask0_30_290)">
<path d="M161.626 19.9059V49.5L172.138 56.7088V40.3676L191.399 54.2559V139.624H180.396V69.6L123.3 31.5882V51.9088L133.802 59.2324V51.1235L169.894 75.1235V150.009H201.911V49.0147L161.626 19.9059Z" fill="white"/>
</g>
<mask id="mask1_30_290" style="mask-type:luminance" maskUnits="userSpaceOnUse" x="52" y="0" width="105" height="150">
<path d="M156.514 0H52V150H156.514V0Z" fill="white"/>
</mask>
<g mask="url(#mask1_30_290)">
<path d="M119.143 58.8529L109.553 52.1735V0C98.3532 9.34412 87.1447 18.6882 75.9452 28.0324L75.8648 61.5177L86.4118 54.1147C86.3314 47.8853 86.2599 41.6559 86.1794 35.4265C90.5502 31.8176 94.9299 28.2176 99.3006 24.6088C99.2202 33.6794 99.1308 42.75 99.0504 51.8206L75.8648 68.0824L52.2592 84.6529V150H86.3671V73.4647L99.0057 64.6059V118.385H129.646V78.8735L145.707 90.0265V139.606H105.361V150.009H156.254V84.6529L129.646 66.1765L119.143 58.8529ZM75.8559 139.641H62.7972V90.0265L75.8559 80.8588V139.632V139.641ZM119.143 107.982H109.553V64.9059L119.143 71.5941V107.982Z" fill="#F8C011"/>
</g>
<path d="M81.04 72.0265V145.032H58.1941L58.4712 87.6971L104.824 55.5089L120.296 66.1324" stroke="white" stroke-width="2" stroke-miterlimit="10"/>
<path d="M174.185 72.8647L129.574 43.1294V56.0382L128.564 55.3059C128.582 50.6206 128.6 45.9353 128.618 41.25L175.4 72.1853V98.0559H174.202L174.176 72.8647H174.185Z" fill="#F8C011" stroke="#F8C011" stroke-width="0.5" stroke-miterlimit="10"/>
<path d="M80.9953 29.1794L101.669 12.3265V13.4118L81.9339 29.7441L81.773 56.8765L80.8792 57.5029L80.9953 29.1794Z" fill="#16232B" stroke="white" stroke-miterlimit="10"/>
<path d="M165.488 52.1559V28.2618L197.147 50.5677L197.12 67.3853H195.636L195.6 51.203L166.39 30.1324L166.471 52.8353L165.488 52.1559Z" fill="#F8C011" stroke="#F8C011" stroke-width="0.5" stroke-miterlimit="10"/>
</g>
<path d="M1.39844 171.508H2.57031V175.82L7.15625 171.508H8.71094L3.1875 176.664L9.14062 183H7.61719L2.57031 177.641V183H1.39844V171.508ZM16.3281 171.219C18.0677 171.219 19.5234 171.799 20.6953 172.961C21.8672 174.122 22.4531 175.552 22.4531 177.25C22.4531 178.932 21.8672 180.359 20.6953 181.531C19.5286 182.703 18.1042 183.289 16.4219 183.289C14.7188 183.289 13.2812 182.706 12.1094 181.539C10.9375 180.372 10.3516 178.961 10.3516 177.305C10.3516 176.201 10.6172 175.177 11.1484 174.234C11.6849 173.292 12.4141 172.555 13.3359 172.023C14.2578 171.487 15.2552 171.219 16.3281 171.219ZM16.3828 172.344C15.5339 172.344 14.7292 172.565 13.9688 173.008C13.2083 173.451 12.6146 174.047 12.1875 174.797C11.7604 175.547 11.5469 176.383 11.5469 177.305C11.5469 178.669 12.0182 179.823 12.9609 180.766C13.9089 181.703 15.0495 182.172 16.3828 182.172C17.2734 182.172 18.0964 181.956 18.8516 181.523C19.612 181.091 20.2031 180.5 20.625 179.75C21.0521 179 21.2656 178.167 21.2656 177.25C21.2656 176.339 21.0521 175.516 20.625 174.781C20.2031 174.042 19.6068 173.451 18.8359 173.008C18.0651 172.565 17.2474 172.344 16.3828 172.344ZM24.2344 183L25.8672 171.508H26.0547L30.7266 180.938L35.3516 171.508H35.5391L37.1875 183H36.0547L34.9297 174.781L30.8672 183H30.5781L26.4609 174.719L25.3438 183H24.2344ZM38.5859 171.539H39.8828L43.3594 179.344L46.5391 171.508H47.7969L43.4375 181.836C43.0312 182.805 42.3099 183.289 41.2734 183.289C40.8568 183.289 40.4635 183.203 40.0938 183.031C39.724 182.865 39.2552 182.466 38.6875 181.836L39.5234 181.148C40.1016 181.716 40.487 182.039 40.6797 182.117C40.8724 182.195 41.0677 182.234 41.2656 182.234C41.5677 182.234 41.8281 182.154 42.0469 181.992C42.2708 181.831 42.5156 181.427 42.7812 180.781L38.5859 171.539ZM49.7891 171.508H50.9453V176.328H56.7891V171.508H57.9453V183H56.7891V177.453H50.9453V183H49.7891V171.508ZM65.4375 171.508L70.7969 183H69.5625L67.7578 179.219H62.8047L61.0078 183H59.7266L65.1562 171.508H65.4375ZM65.2969 173.945L63.3203 178.109H67.25L65.2969 173.945ZM81.8906 183H80.6406L76.8359 174.117L72.9609 183H71.7109L76.7109 171.508H76.9609L81.8906 183ZM83.8125 171.508H84.9609V176.438H85.7891C87.2943 176.438 88.375 176.51 89.0312 176.656C89.6875 176.802 90.2161 177.138 90.6172 177.664C91.0182 178.185 91.2188 178.859 91.2188 179.688C91.2188 180.5 91.0234 181.174 90.6328 181.711C90.2422 182.242 89.7448 182.591 89.1406 182.758C88.5365 182.919 87.5234 183 86.1016 183H83.8125V171.508ZM84.9609 181.891H86.1875C87.4792 181.891 88.3203 181.831 88.7109 181.711C89.1068 181.586 89.4193 181.357 89.6484 181.023C89.8828 180.69 90 180.263 90 179.742C90 179.169 89.8542 178.703 89.5625 178.344C89.2708 177.984 88.8984 177.766 88.4453 177.688C87.9974 177.604 87.1589 177.562 85.9297 177.562H84.9609V181.891ZM93.5078 171.508H94.6641V176.328H100.508V171.508H101.664V183H100.508V177.453H94.6641V183H93.5078V171.508ZM104.469 171.508H111.055V172.641H105.617V176.234H111.008V177.359H105.617V181.867H111.008V183H104.469V171.508ZM117.461 171.508H125.617V183H124.461V172.602H118.617V183H117.461V171.508ZM128.25 171.508H129.398V183H128.25V171.508ZM132.008 184.719H130.875V181.93H131.812L136.32 171.508H136.719L141.477 181.93H142.375V184.719H141.242V183H132.008V184.719ZM133.109 181.93H140.117L136.523 173.883L133.109 181.93ZM143.992 171.508H152.148V183H150.992V172.602H145.148V183H143.992V171.508ZM154.938 171.508H157.227C158.539 171.508 159.424 171.565 159.883 171.68C160.539 171.841 161.076 172.174 161.492 172.68C161.909 173.18 162.117 173.81 162.117 174.57C162.117 175.336 161.914 175.969 161.508 176.469C161.102 176.964 160.542 177.297 159.828 177.469C159.307 177.594 158.333 177.656 156.906 177.656H156.086V183H154.938V171.508ZM156.086 172.625V176.531L158.031 176.555C158.818 176.555 159.393 176.484 159.758 176.344C160.122 176.198 160.409 175.966 160.617 175.648C160.826 175.326 160.93 174.966 160.93 174.57C160.93 174.185 160.826 173.833 160.617 173.516C160.409 173.193 160.133 172.964 159.789 172.828C159.451 172.693 158.893 172.625 158.117 172.625H156.086ZM173.445 183H172.25V174.195L164.68 183H164.422V171.508H165.57V180.469L173.188 171.508H173.445V183ZM177.023 177.773H182.453V176.641H177.07C177.169 175.328 177.711 174.286 178.695 173.516C179.685 172.74 180.779 172.352 181.977 172.352C183.706 172.352 185.076 173.013 186.086 174.336L187 173.641C186.479 172.891 185.776 172.299 184.891 171.867C184.01 171.435 183.034 171.219 181.961 171.219C180.201 171.219 178.727 171.792 177.539 172.938C176.357 174.083 175.766 175.5 175.766 177.188C175.766 178.891 176.326 180.333 177.445 181.516C178.57 182.698 180.081 183.289 181.977 183.289C184.122 183.289 185.797 182.526 187 181L186.086 180.312C185.013 181.573 183.669 182.203 182.055 182.203C180.82 182.203 179.724 181.844 178.766 181.125C177.812 180.401 177.232 179.284 177.023 177.773ZM188.75 183L190.383 171.508H190.57L195.242 180.938L199.867 171.508H200.055L201.703 183H200.57L199.445 174.781L195.383 183H195.094L190.977 174.719L189.859 183H188.75ZM214.68 173.641L213.773 174.336C213.273 173.685 212.672 173.193 211.969 172.859C211.271 172.521 210.503 172.352 209.664 172.352C208.747 172.352 207.898 172.573 207.117 173.016C206.336 173.453 205.729 174.044 205.297 174.789C204.87 175.529 204.656 176.362 204.656 177.289C204.656 178.69 205.135 179.859 206.094 180.797C207.057 181.734 208.271 182.203 209.734 182.203C211.344 182.203 212.69 181.573 213.773 180.312L214.68 181C214.107 181.729 213.391 182.294 212.531 182.695C211.677 183.091 210.721 183.289 209.664 183.289C207.654 183.289 206.068 182.62 204.906 181.281C203.932 180.151 203.445 178.786 203.445 177.188C203.445 175.505 204.034 174.091 205.211 172.945C206.393 171.794 207.872 171.219 209.648 171.219C210.721 171.219 211.69 171.432 212.555 171.859C213.419 172.281 214.128 172.875 214.68 173.641ZM215.852 172.625V171.508H222.156V172.625H219.594V183H218.422V172.625H215.852ZM223.836 171.508H226.102C227.013 171.508 227.714 171.617 228.203 171.836C228.693 172.049 229.078 172.38 229.359 172.828C229.646 173.276 229.789 173.773 229.789 174.32C229.789 174.831 229.664 175.297 229.414 175.719C229.164 176.135 228.797 176.474 228.312 176.734C228.911 176.938 229.372 177.177 229.695 177.453C230.018 177.724 230.268 178.055 230.445 178.445C230.628 178.831 230.719 179.25 230.719 179.703C230.719 180.625 230.38 181.406 229.703 182.047C229.031 182.682 228.128 183 226.992 183H223.836V171.508ZM224.961 172.633V176.312H225.617C226.414 176.312 227 176.24 227.375 176.094C227.75 175.943 228.047 175.708 228.266 175.391C228.484 175.068 228.594 174.711 228.594 174.32C228.594 173.794 228.409 173.383 228.039 173.086C227.674 172.784 227.091 172.633 226.289 172.633H224.961ZM224.961 177.469V181.875H226.383C227.221 181.875 227.836 181.794 228.227 181.633C228.617 181.466 228.93 181.208 229.164 180.859C229.404 180.51 229.523 180.133 229.523 179.727C229.523 179.216 229.357 178.771 229.023 178.391C228.69 178.01 228.232 177.75 227.648 177.609C227.258 177.516 226.578 177.469 225.609 177.469H224.961ZM238.469 171.219C240.208 171.219 241.664 171.799 242.836 172.961C244.008 174.122 244.594 175.552 244.594 177.25C244.594 178.932 244.008 180.359 242.836 181.531C241.669 182.703 240.245 183.289 238.562 183.289C236.859 183.289 235.422 182.706 234.25 181.539C233.078 180.372 232.492 178.961 232.492 177.305C232.492 176.201 232.758 175.177 233.289 174.234C233.826 173.292 234.555 172.555 235.477 172.023C236.398 171.487 237.396 171.219 238.469 171.219ZM238.523 172.344C237.674 172.344 236.87 172.565 236.109 173.008C235.349 173.451 234.755 174.047 234.328 174.797C233.901 175.547 233.688 176.383 233.688 177.305C233.688 178.669 234.159 179.823 235.102 180.766C236.049 181.703 237.19 182.172 238.523 182.172C239.414 182.172 240.237 181.956 240.992 181.523C241.753 181.091 242.344 180.5 242.766 179.75C243.193 179 243.406 178.167 243.406 177.25C243.406 176.339 243.193 175.516 242.766 174.781C242.344 174.042 241.747 173.451 240.977 173.008C240.206 172.565 239.388 172.344 238.523 172.344Z" fill="white"/>
<path d="M11.9355 203.143H24.7676V207.959H16.8047V229H11.9355V203.143ZM28.5996 203.143H33.8203C36.6445 203.143 38.6777 203.406 39.9199 203.934C41.1738 204.449 42.1582 205.293 42.873 206.465C43.5996 207.625 43.9629 209.02 43.9629 210.648C43.9629 212.453 43.4883 213.953 42.5391 215.148C41.6016 216.344 40.3242 217.176 38.707 217.645C37.7578 217.914 36.0293 218.049 33.5215 218.049V229H28.5996V203.143ZM33.5215 213.25H35.0859C36.3164 213.25 37.1719 213.162 37.6523 212.986C38.1328 212.811 38.5078 212.523 38.7773 212.125C39.0586 211.715 39.1992 211.223 39.1992 210.648C39.1992 209.652 38.8125 208.926 38.0391 208.469C37.4766 208.129 36.4336 207.959 34.9102 207.959H33.5215V213.25ZM56.6719 203.143H61.6641L71.6133 229H66.498L64.4766 223.674H53.9297L51.8203 229H46.7051L56.6719 203.143ZM59.2031 209.998L55.7578 218.875H62.6309L59.2031 209.998ZM83.8477 203.143H88.8223L97.1367 224.377H100.02V232.867H95.2559V229H77.4668V232.867H72.7031V224.377H75.5684L83.8477 203.143ZM86.3789 209.998L80.7188 224.377H92.0215L86.3789 209.998ZM103.201 203.143H121.816V229H116.842V207.748H108.193V229H103.201V203.143ZM127.705 203.143H132.926C135.75 203.143 137.783 203.406 139.025 203.934C140.279 204.449 141.264 205.293 141.979 206.465C142.705 207.625 143.068 209.02 143.068 210.648C143.068 212.453 142.594 213.953 141.645 215.148C140.707 216.344 139.43 217.176 137.812 217.645C136.863 217.914 135.135 218.049 132.627 218.049V229H127.705V203.143ZM132.627 213.25H134.191C135.422 213.25 136.277 213.162 136.758 212.986C137.238 212.811 137.613 212.523 137.883 212.125C138.164 211.715 138.305 211.223 138.305 210.648C138.305 209.652 137.918 208.926 137.145 208.469C136.582 208.129 135.539 207.959 134.016 207.959H132.627V213.25ZM160.119 202.492C163.775 202.492 166.916 203.816 169.541 206.465C172.178 209.113 173.496 212.342 173.496 216.15C173.496 219.924 172.195 223.117 169.594 225.73C167.004 228.344 163.857 229.65 160.154 229.65C156.275 229.65 153.053 228.309 150.486 225.625C147.92 222.941 146.637 219.754 146.637 216.062C146.637 213.59 147.234 211.316 148.43 209.242C149.625 207.168 151.266 205.527 153.352 204.32C155.449 203.102 157.705 202.492 160.119 202.492ZM160.066 207.309C157.676 207.309 155.666 208.141 154.037 209.805C152.408 211.469 151.594 213.584 151.594 216.15C151.594 219.01 152.619 221.271 154.67 222.936C156.264 224.236 158.092 224.887 160.154 224.887C162.486 224.887 164.473 224.043 166.113 222.355C167.754 220.668 168.574 218.588 168.574 216.115C168.574 213.654 167.748 211.574 166.096 209.875C164.443 208.164 162.434 207.309 160.066 207.309ZM178.154 203.143H192.27V207.959H183.041V212.635H192.27V217.363H183.041V224.166H192.27V229H178.154V203.143ZM196.91 203.143H201.885V212.037L208.898 203.143H214.822L205.787 214.674L215.701 229H209.865L201.885 217.521V229H196.91V203.143ZM216.65 203.143H230.941V207.994H226.23V229H221.238V207.994H216.65V203.143Z" fill="#F8C011"/>
<defs>
<clipPath id="clip0_30_290">
<rect width="150" height="150" fill="white" transform="translate(52)"/>
</clipPath>
</defs>
</svg>
