<svg width="316" height="70" viewBox="0 0 316 70" fill="none" xmlns="http://www.w3.org/2000/svg">
<path d="M101.398 52.5078H102.57V56.8203L107.156 52.5078H108.711L103.188 57.6641L109.141 64H107.617L102.57 58.6406V64H101.398V52.5078ZM114.695 55.2812C116.003 55.2812 117.086 55.7552 117.945 56.7031C118.727 57.5677 119.117 58.5911 119.117 59.7734C119.117 60.9609 118.703 62 117.875 62.8906C117.052 63.776 115.992 64.2188 114.695 64.2188C113.393 64.2188 112.328 63.776 111.5 62.8906C110.677 62 110.266 60.9609 110.266 59.7734C110.266 58.5964 110.656 57.5755 111.438 56.7109C112.297 55.7578 113.383 55.2812 114.695 55.2812ZM114.695 56.3516C113.789 56.3516 113.01 56.6875 112.359 57.3594C111.708 58.0312 111.383 58.8438 111.383 59.7969C111.383 60.4115 111.531 60.9844 111.828 61.5156C112.125 62.0469 112.526 62.4583 113.031 62.75C113.536 63.0365 114.091 63.1797 114.695 63.1797C115.299 63.1797 115.854 63.0365 116.359 62.75C116.865 62.4583 117.266 62.0469 117.562 61.5156C117.859 60.9844 118.008 60.4115 118.008 59.7969C118.008 58.8438 117.68 58.0312 117.023 57.3594C116.372 56.6875 115.596 56.3516 114.695 56.3516ZM130.383 55.5H130.695L133.578 64H132.438L130.336 57.7422L127.07 64H126.867L123.594 57.7422L121.5 64H120.359L123.258 55.5H123.555L126.977 62.1484L130.383 55.5ZM134.305 55.5H135.461L138.383 62.0469L141.219 55.5H142.383L137.312 67.1094H136.156L137.797 63.3594L134.305 55.5ZM149.836 59.9062H144.898V64H143.797V55.5H144.898V58.875H149.836V55.5H150.93V64H149.836V59.9062ZM161.844 55.5V64H160.766V62.5391C160.307 63.0964 159.792 63.5156 159.219 63.7969C158.651 64.0781 158.029 64.2188 157.352 64.2188C156.148 64.2188 155.12 63.7839 154.266 62.9141C153.417 62.0391 152.992 60.9766 152.992 59.7266C152.992 58.5026 153.422 57.4557 154.281 56.5859C155.141 55.7161 156.174 55.2812 157.383 55.2812C158.081 55.2812 158.711 55.4297 159.273 55.7266C159.841 56.0234 160.339 56.4688 160.766 57.0625V55.5H161.844ZM157.469 56.3359C156.859 56.3359 156.297 56.487 155.781 56.7891C155.266 57.0859 154.854 57.5052 154.547 58.0469C154.245 58.5885 154.094 59.1615 154.094 59.7656C154.094 60.3646 154.247 60.9375 154.555 61.4844C154.862 62.0312 155.273 62.4583 155.789 62.7656C156.31 63.0677 156.867 63.2188 157.461 63.2188C158.06 63.2188 158.628 63.0677 159.164 62.7656C159.701 62.4635 160.112 62.0547 160.398 61.5391C160.69 61.0234 160.836 60.4427 160.836 59.7969C160.836 58.8125 160.51 57.9896 159.859 57.3281C159.214 56.6667 158.417 56.3359 157.469 56.3359ZM171.508 64H170.344L167.5 57.8125L164.68 64H163.508L167.398 55.5H167.594L171.508 64ZM174.273 58.8672H175.312C176.141 58.8672 176.789 58.9323 177.258 59.0625C177.727 59.1927 178.13 59.4818 178.469 59.9297C178.807 60.3724 178.977 60.8828 178.977 61.4609C178.977 62.1589 178.732 62.7578 178.242 63.2578C177.753 63.7526 177.01 64 176.016 64H173.188V55.5H174.273V58.8672ZM174.312 59.8672V63.0781H175.57C177.049 63.0781 177.789 62.5573 177.789 61.5156C177.789 61.2188 177.708 60.9271 177.547 60.6406C177.391 60.3542 177.159 60.1536 176.852 60.0391C176.549 59.9245 176.013 59.8672 175.242 59.8672H174.312ZM186.773 59.9062H181.836V64H180.734V55.5H181.836V58.875H186.773V55.5H187.867V64H186.773V59.9062ZM197.469 61.1797L198.391 61.6641C198.089 62.2578 197.74 62.737 197.344 63.1016C196.948 63.4661 196.503 63.7448 196.008 63.9375C195.513 64.125 194.953 64.2188 194.328 64.2188C192.943 64.2188 191.859 63.7656 191.078 62.8594C190.297 61.9479 189.906 60.9193 189.906 59.7734C189.906 58.6953 190.237 57.7344 190.898 56.8906C191.737 55.8177 192.859 55.2812 194.266 55.2812C195.714 55.2812 196.87 55.8307 197.734 56.9297C198.349 57.7057 198.661 58.6745 198.672 59.8359H191.031C191.052 60.8255 191.367 61.638 191.977 62.2734C192.586 62.9036 193.339 63.2188 194.234 63.2188C194.667 63.2188 195.086 63.1432 195.492 62.9922C195.904 62.8411 196.253 62.6406 196.539 62.3906C196.826 62.1406 197.135 61.737 197.469 61.1797ZM197.469 58.8906C197.323 58.3073 197.109 57.8411 196.828 57.4922C196.552 57.1432 196.185 56.862 195.727 56.6484C195.268 56.4349 194.786 56.3281 194.281 56.3281C193.448 56.3281 192.732 56.5964 192.133 57.1328C191.695 57.5234 191.365 58.1094 191.141 58.8906H197.469ZM205.156 55.5H212.289V64H211.195V56.5312H206.25V64H205.156V55.5ZM215.117 52C215.367 52 215.581 52.0885 215.758 52.2656C215.935 52.4427 216.023 52.6562 216.023 52.9062C216.023 53.151 215.935 53.362 215.758 53.5391C215.581 53.7161 215.367 53.8047 215.117 53.8047C214.872 53.8047 214.661 53.7161 214.484 53.5391C214.307 53.362 214.219 53.151 214.219 52.9062C214.219 52.6562 214.307 52.4427 214.484 52.2656C214.661 52.0885 214.872 52 215.117 52ZM214.57 55.5H215.672V64H214.57V55.5ZM218.008 63.0703L221.289 55.5H221.859L225.117 63.0703H226.141V65.0859H225.086V64H218.055V65.1328H216.977V63.0703H218.008ZM221.555 57.1875L219.07 63.0703H223.938L221.555 57.1875ZM227.625 55.5H234.758V64H233.664V56.5312H228.719V64H227.625V55.5ZM237.219 55.5H238.305V57.0625C238.737 56.4688 239.234 56.0234 239.797 55.7266C240.359 55.4297 240.987 55.2812 241.68 55.2812C242.888 55.2812 243.922 55.7161 244.781 56.5859C245.641 57.4557 246.07 58.5026 246.07 59.7266C246.07 60.9766 245.643 62.0391 244.789 62.9141C243.94 63.7839 242.914 64.2188 241.711 64.2188C241.034 64.2188 240.411 64.0781 239.844 63.7969C239.276 63.5156 238.763 63.0964 238.305 62.5391V67.1094H237.219V55.5ZM241.594 56.3359C240.646 56.3359 239.846 56.6667 239.195 57.3281C238.549 57.9896 238.227 58.8125 238.227 59.7969C238.227 60.4427 238.37 61.0234 238.656 61.5391C238.948 62.0547 239.362 62.4635 239.898 62.7656C240.44 63.0677 241.01 63.2188 241.609 63.2188C242.198 63.2188 242.75 63.0677 243.266 62.7656C243.786 62.4583 244.201 62.0312 244.508 61.4844C244.815 60.9375 244.969 60.3646 244.969 59.7656C244.969 59.1615 244.815 58.5885 244.508 58.0469C244.206 57.5052 243.797 57.0859 243.281 56.7891C242.766 56.487 242.203 56.3359 241.594 56.3359ZM249.219 55.5V61.7891L255.461 55.5H255.547V64H254.453V57.7656L248.258 64H248.125V55.5H249.219ZM258.695 60.0703C258.799 61.0234 259.19 61.7865 259.867 62.3594C260.544 62.9323 261.354 63.2188 262.297 63.2188C263.547 63.2188 264.568 62.7214 265.359 61.7266L266.227 62.2969C265.82 62.9427 265.255 63.4245 264.531 63.7422C263.807 64.0599 263.047 64.2188 262.25 64.2188C260.88 64.2188 259.758 63.7865 258.883 62.9219C258.013 62.0521 257.578 61.0182 257.578 59.8203C257.578 58.5547 258.026 57.4818 258.922 56.6016C259.823 55.7214 260.961 55.2812 262.336 55.2812C263.133 55.2812 263.891 55.4557 264.609 55.8047C265.333 56.1484 265.872 56.6354 266.227 57.2656L265.359 57.8047C264.609 56.8099 263.586 56.3125 262.289 56.3125C261.383 56.3125 260.602 56.5755 259.945 57.1016C259.294 57.6276 258.878 58.3047 258.695 59.1328H262.477V60.0703H258.695ZM277.492 55.5H277.805L280.688 64H279.547L277.445 57.7422L274.18 64H273.977L270.703 57.7422L268.609 64H267.469L270.367 55.5H270.664L274.086 62.1484L277.492 55.5ZM290.578 57.2656L289.711 57.8047C288.961 56.8099 287.938 56.3125 286.641 56.3125C285.604 56.3125 284.742 56.6458 284.055 57.3125C283.372 57.9792 283.031 58.7891 283.031 59.7422C283.031 60.362 283.188 60.9453 283.5 61.4922C283.818 62.0391 284.25 62.4635 284.797 62.7656C285.349 63.0677 285.966 63.2188 286.648 63.2188C287.898 63.2188 288.919 62.7214 289.711 61.7266L290.578 62.2969C290.172 62.9062 289.625 63.3802 288.938 63.7188C288.255 64.0521 287.477 64.2188 286.602 64.2188C285.258 64.2188 284.143 63.7917 283.258 62.9375C282.372 62.0833 281.93 61.0443 281.93 59.8203C281.93 58.9974 282.135 58.2344 282.547 57.5312C282.964 56.8229 283.534 56.2708 284.258 55.875C284.982 55.4792 285.792 55.2812 286.688 55.2812C287.25 55.2812 287.792 55.3672 288.312 55.5391C288.839 55.7109 289.284 55.9349 289.648 56.2109C290.013 56.487 290.323 56.8385 290.578 57.2656ZM291.734 55.5H297.328V56.4453H295.078V64H293.977V56.4453H291.734V55.5ZM301.281 64H298.812V55.5H301.242C302.169 55.5 302.836 55.7135 303.242 56.1406C303.654 56.5677 303.859 57.0677 303.859 57.6406C303.859 58.5052 303.479 59.0911 302.719 59.3984C303.823 59.7891 304.375 60.5417 304.375 61.6562C304.375 63.2188 303.344 64 301.281 64ZM299.914 56.4453V59.1016H300.625C301.271 59.1016 301.693 59.0755 301.891 59.0234C302.089 58.9714 302.273 58.8438 302.445 58.6406C302.622 58.4323 302.711 58.1589 302.711 57.8203C302.711 57.4661 302.62 57.1693 302.438 56.9297C302.255 56.6901 302.062 56.5495 301.859 56.5078C301.661 56.4661 301.25 56.4453 300.625 56.4453H299.914ZM299.914 60.1016V63.0781H301.086C301.638 63.0781 302.031 63.0443 302.266 62.9766C302.505 62.9036 302.708 62.75 302.875 62.5156C303.047 62.2812 303.133 61.9844 303.133 61.625C303.133 61.1615 302.987 60.7917 302.695 60.5156C302.404 60.2396 302.018 60.1016 301.539 60.1016H299.914ZM310.32 55.2812C311.628 55.2812 312.711 55.7552 313.57 56.7031C314.352 57.5677 314.742 58.5911 314.742 59.7734C314.742 60.9609 314.328 62 313.5 62.8906C312.677 63.776 311.617 64.2188 310.32 64.2188C309.018 64.2188 307.953 63.776 307.125 62.8906C306.302 62 305.891 60.9609 305.891 59.7734C305.891 58.5964 306.281 57.5755 307.062 56.7109C307.922 55.7578 309.008 55.2812 310.32 55.2812ZM310.32 56.3516C309.414 56.3516 308.635 56.6875 307.984 57.3594C307.333 58.0312 307.008 58.8438 307.008 59.7969C307.008 60.4115 307.156 60.9844 307.453 61.5156C307.75 62.0469 308.151 62.4583 308.656 62.75C309.161 63.0365 309.716 63.1797 310.32 63.1797C310.924 63.1797 311.479 63.0365 311.984 62.75C312.49 62.4583 312.891 62.0469 313.188 61.5156C313.484 60.9844 313.633 60.4115 313.633 59.7969C313.633 58.8438 313.305 58.0312 312.648 57.3594C311.997 56.6875 311.221 56.3516 310.32 56.3516Z" fill="#F8C011"/>
<path d="M102.609 19.0156H114.016V23.2969H106.938V42H102.609V19.0156ZM117.422 19.0156H122.062C124.573 19.0156 126.38 19.25 127.484 19.7188C128.599 20.1771 129.474 20.9271 130.109 21.9688C130.755 23 131.078 24.2396 131.078 25.6875C131.078 27.2917 130.656 28.625 129.812 29.6875C128.979 30.75 127.844 31.4896 126.406 31.9062C125.562 32.1458 124.026 32.2656 121.797 32.2656V42H117.422V19.0156ZM121.797 28H123.188C124.281 28 125.042 27.9219 125.469 27.7656C125.896 27.6094 126.229 27.3542 126.469 27C126.719 26.6354 126.844 26.1979 126.844 25.6875C126.844 24.8021 126.5 24.1562 125.812 23.75C125.312 23.4479 124.385 23.2969 123.031 23.2969H121.797V28ZM142.375 19.0156H146.812L155.656 42H151.109L149.312 37.2656H139.938L138.062 42H133.516L142.375 19.0156ZM144.625 25.1094L141.562 33H147.672L144.625 25.1094ZM166.531 19.0156H170.953L178.344 37.8906H180.906V45.4375H176.672V42H160.859V45.4375H156.625V37.8906H159.172L166.531 19.0156ZM168.781 25.1094L163.75 37.8906H173.797L168.781 25.1094ZM183.734 19.0156H200.281V42H195.859V23.1094H188.172V42H183.734V19.0156ZM205.516 19.0156H210.156C212.667 19.0156 214.474 19.25 215.578 19.7188C216.693 20.1771 217.568 20.9271 218.203 21.9688C218.849 23 219.172 24.2396 219.172 25.6875C219.172 27.2917 218.75 28.625 217.906 29.6875C217.073 30.75 215.938 31.4896 214.5 31.9062C213.656 32.1458 212.12 32.2656 209.891 32.2656V42H205.516V19.0156ZM209.891 28H211.281C212.375 28 213.135 27.9219 213.562 27.7656C213.99 27.6094 214.323 27.3542 214.562 27C214.812 26.6354 214.938 26.1979 214.938 25.6875C214.938 24.8021 214.594 24.1562 213.906 23.75C213.406 23.4479 212.479 23.2969 211.125 23.2969H209.891V28ZM234.328 18.4375C237.578 18.4375 240.37 19.6146 242.703 21.9688C245.047 24.3229 246.219 27.1927 246.219 30.5781C246.219 33.9323 245.062 36.7708 242.75 39.0938C240.448 41.4167 237.651 42.5781 234.359 42.5781C230.911 42.5781 228.047 41.3854 225.766 39C223.484 36.6146 222.344 33.7812 222.344 30.5C222.344 28.3021 222.875 26.2812 223.938 24.4375C225 22.5938 226.458 21.1354 228.312 20.0625C230.177 18.9792 232.182 18.4375 234.328 18.4375ZM234.281 22.7188C232.156 22.7188 230.37 23.4583 228.922 24.9375C227.474 26.4167 226.75 28.2969 226.75 30.5781C226.75 33.1198 227.661 35.1302 229.484 36.6094C230.901 37.7656 232.526 38.3438 234.359 38.3438C236.432 38.3438 238.198 37.5938 239.656 36.0938C241.115 34.5938 241.844 32.7448 241.844 30.5469C241.844 28.3594 241.109 26.5104 239.641 25C238.172 23.4792 236.385 22.7188 234.281 22.7188ZM250.359 19.0156H262.906V23.2969H254.703V27.4531H262.906V31.6562H254.703V37.7031H262.906V42H250.359V19.0156ZM267.031 19.0156H271.453V26.9219L277.688 19.0156H282.953L274.922 29.2656L283.734 42H278.547L271.453 31.7969V42H267.031V19.0156ZM284.578 19.0156H297.281V23.3281H293.094V42H288.656V23.3281H284.578V19.0156Z" fill="#F8C011"/>
<g clip-path="url(#clip0_505_1327)">
<mask id="mask0_505_1327" style="mask-type:luminance" maskUnits="userSpaceOnUse" x="32" y="9" width="38" height="61">
<path d="M70 9.11646H32.9854V70H70V9.11646Z" fill="white"/>
</mask>
<g mask="url(#mask0_505_1327)">
<path d="M51.159 9.28943V23.1L56.0643 26.4641V18.8383L65.0531 25.3194V65.1577H59.9184V32.48L33.2732 14.7412V24.2241L38.1743 27.6418V23.8577L55.0173 35.0577V70.0041H69.9583V22.8735L51.159 9.28943Z" fill="white"/>
</g>
<mask id="mask1_505_1327" style="mask-type:luminance" maskUnits="userSpaceOnUse" x="0" y="0" width="49" height="70">
<path d="M48.7731 0H0V70H48.7731V0Z" fill="white"/>
</mask>
<g mask="url(#mask1_505_1327)">
<path d="M31.3336 27.4647L26.8579 24.3476V0C21.6315 4.36059 16.4009 8.72118 11.1745 13.0818L11.1369 28.7082L16.0589 25.2535C16.0213 22.3465 15.988 19.4394 15.9504 16.5324C17.9901 14.8482 20.034 13.1682 22.0737 11.4841C22.0361 15.7171 21.9944 19.95 21.9569 24.1829L11.1369 31.7718L0.120972 39.5047V70H16.038V34.2835L21.936 30.1494V55.2465H36.2347V36.8077L43.7302 42.0124V65.1494H24.9017V70.0041H48.6521V39.5047L36.2347 30.8824L31.3336 27.4647ZM11.1328 65.1659H5.03874V42.0124L11.1328 37.7341V65.1618V65.1659ZM31.3336 50.3918H26.8579V30.2894L31.3336 33.4106V50.3918Z" fill="#F8C011"/>
</g>
<path d="M13.552 33.6124V67.6818H2.89062L3.01993 40.9254L24.6514 25.9042L31.8717 30.8618" stroke="white" stroke-width="2" stroke-miterlimit="10"/>
<path d="M57.0195 34.0035L36.2013 20.1271V26.1512L35.73 25.8094C35.7383 23.6229 35.7467 21.4365 35.755 19.25L57.5867 33.6865V45.7594H57.0278L57.0153 34.0035H57.0195Z" fill="#F8C011" stroke="#F8C011" stroke-width="0.5" stroke-miterlimit="10"/>
<path d="M13.5312 13.617L23.179 5.75232V6.25879L13.9691 13.8806L13.894 26.5423L13.4769 26.8347L13.5312 13.617Z" fill="#16232B" stroke="white" stroke-miterlimit="10"/>
<path d="M52.9609 24.3394V13.1888L67.7351 23.5983L67.7226 31.4465H67.0302L67.0135 23.8947L53.3822 14.0618L53.4198 24.6565L52.9609 24.3394Z" fill="#F8C011" stroke="#F8C011" stroke-width="0.5" stroke-miterlimit="10"/>
</g>
<defs>
<clipPath id="clip0_505_1327">
<rect width="70" height="70" fill="white"/>
</clipPath>
</defs>
</svg>
